<?xml version="1.0" encoding="UTF-8"?>
<svg id="Layer_2" xmlns="http://www.w3.org/2000/svg" xmlns:xlink="http://www.w3.org/1999/xlink" viewBox="0 0 1302 1028.83">
  <defs>
    <style>
      .cls-1 {
        fill: url(#linear-gradient);
      }
    </style>
    <linearGradient id="linear-gradient" x1="651" y1="0" x2="651" y2="1028.83" gradientUnits="userSpaceOnUse">
      <stop offset="0" stop-color="#5e8cb2"/>
      <stop offset="0" stop-color="#5e84b2"/>
      <stop offset="0" stop-color="#5e89b2"/>
      <stop offset="0" stop-color="#5e8ab2"/>
      <stop offset="0" stop-color="#5e86c0"/>
      <stop offset="0" stop-color="#5e7de4"/>
      <stop offset=".31" stop-color="#5e71d8"/>
      <stop offset=".87" stop-color="#5e54b9"/>
      <stop offset="1" stop-color="#5e4db2"/>
    </linearGradient>
  </defs>
  <g id="Layer_1-2" data-name="Layer_1">
    <path class="cls-1" d="M955.62,807.99h0l-174.87,215.58c-2.6,3.2-6.96,5.12-11.62,5.12h-145.35c-11.19,0-17.85-10.3-11.62-17.97l253.95-313.08,61.82,76.22-61.82-76.22,16.91-20.85-16.91,20.85-253.95-313.08c-6.22-7.67.44-17.97,11.62-17.97h145.35c4.67,0,9.03,1.92,11.62,5.12l174.87,215.58h0l174.87-215.58c2.6-3.2,6.96-5.12,11.62-5.12h145.35c11.19,0,17.85,10.3,11.62,17.97l-253.95,313.08-16.91-20.85,16.91,20.85-89.51,110.36ZM1299.74,1010.88l-215.77-275.96c-5.46-6.98-17.78-7.06-23.38-.16l-23.52,29c-32.92,40.59-33.76,93.39-2.15,134.68l95.61,124.87c2.56,3.35,7.03,5.38,11.82,5.38h145.63c11.08,0,17.76-10.13,11.75-17.81ZM451.02,186.52h-45.7c-51.51,0-93.26,39.32-93.26,87.83v741.31c0,7.28,6.26,13.17,13.99,13.17h124.97c7.73,0,13.99-5.9,13.99-13.17V199.69c0-7.28-6.26-13.17-13.99-13.17ZM763.88,0H13.12C5.88,0,0,6.42,0,14.34v124.27c0,7.92,5.88,14.34,13.12,14.34h750.75c7.25,0,13.12-6.42,13.12-14.34V14.34c0-7.92-5.88-14.34-13.12-14.34Z"/>
  </g>
</svg>